# xmcd
#
# Track frame offsets:
# 150
# 20455
# 39024
# 59238
# 79619
# 99050
# 114122
# 134428
#
# Disc length: 2037 seconds
#
# Revision: 0
# Processed by: cddbd v1.5.1PL0 Copyright (c) Steve Scherf et al.
# Submitted via: Audion 2.6.0 (http://www.panic.com/audion/)
#
DISCID=5607f308
DTITLE=Kamran and Hooman - K&H Stage Dance
DYEAR=1900
DGENRE=
TTITLE0=Rendez-Vous
TTITLE1=Lili
TTITLE2=Rendez-Vous 
TTITLE3=Lili
TTITLE4=Rendez-Vous 
TTITLE5=Lili
TTITLE6=Rendez-Vous 
TTITLE7=Lili
EXTD=
EXTT0=
EXTT1=
EXTT2=
EXTT3=
EXTT4=
EXTT5=
EXTT6=
EXTT7=
PLAYORDER=
